<svg id="Layer_1" data-name="Layer 1" xmlns="http://www.w3.org/2000/svg" viewBox="0 0 366.9 442.34"><defs><style>.cls-1{fill:#575656;}.cls-2{fill:#b59e74;}.cls-3{fill:#98815c;}.cls-4{fill:#d4bfa4;}.cls-5{fill:#98825c;}.cls-6{fill:#e6af5c;}.cls-7{fill:#fdfdfd;}.cls-8{fill:#fefefe;}.cls-9{fill:#d3bfa4;}.cls-10{fill:#e6af5d;}.cls-11{fill:#97815d;}.cls-12{fill:#d2bda3;}.cls-13{fill:#ccbaa2;}.cls-14{fill:#cbb9a0;}.cls-15{fill:#cbb8a0;}.cls-16{fill:#73706a;}.cls-17{fill:#7d7971;}.cls-18{fill:#bead96;}.cls-19{fill:#9e937c;}.cls-20{fill:#c2b19a;}.cls-21{fill:#c1b19b;}.cls-22{fill:#ac997a;}.cls-23{fill:#c5b39b;}.cls-24{fill:#7b756a;}.cls-25{fill:#c1a374;}.cls-26{fill:#7a7469;}.cls-27{fill:#d3bea4;}.cls-28{fill:#d2bea4;}.cls-29{fill:#d1bda3;}.cls-30{fill:#b3a48e;}.cls-31{fill:#5d5b59;}.cls-32{fill:#eee;}.cls-33{fill:#cdbaa1;}.cls-34{fill:#c7b59b;}.cls-35{fill:#cab89f;}.cls-36{fill:#ccbaa1;}.cls-37{fill:#ccb9a0;}.cls-38{fill:#bca786;}.cls-39{fill:#bdae99;}.cls-40{fill:#baac99;}.cls-41{fill:#cfbca2;}</style></defs><path class="cls-1" d="M277.52,69.35c11.16-10.91,19.37-24,27.06-37.39,3.69-6.44,7-13.06,10.62-19.55.95-1.71,1.28-4.63,4.18-3.9,2.56.64,2.2,3.32,2.54,5.33,2.52,15,.57,29.55-4.34,43.82A171.38,171.38,0,0,1,305.9,83.72c-.68,1.25-1.89,2.35-1.71,4.1,2.07-.26,3-1.93,4.25-3.14,14.5-14.32,26.85-30.42,38.79-46.86.71-1,1.41-2,2.16-2.93a2.84,2.84,0,0,1,3.63-1c1.39.63,1.06,1.9,1,3.15-.77,13.49-5.77,25.78-10.83,38C336.84,90.41,328,104.31,318.79,118c-.92,1.37-2.06,2.63-2.31,4.36,7.2.72,9.32,4.7,5.91,11.64-2.86,5.82-7.6,10.17-12.36,14.39s-9.71,8.19-14.56,12.29c-.77.65-1.86,1.14-1.68,2.56a56.89,56.89,0,0,1,7.39.06c5.33.69,7.24,4.2,5,9.1-1.67,3.72-5,6-7.93,8.62-3.44,3.1-7.49,5.54-11,9.89,5.56,0,10.29,0,15,0,2.9,0,6.17-.28,7,3.45.79,3.56-2.05,5.24-4.63,6.45-10.61,5-19,13.19-29.71,19.28,3.62,1.64,6.62.86,9.5,1,4.84.16,9.7,0,14.54.12,3.76.08,4.57,1.56,2.86,4.87-1.89,3.64-5.36,5.27-8.87,6.64-8.41,3.3-16.9,6.4-26.5,10,5.75,1.47,10.46,2.68,15.17,3.87.88.22,1.81.26,2.67.53,2.62.84,5.42,1.66,5.82,4.94.36,2.93-1.62,4.67-3.82,6.2-5.42,3.79-11.58,5.9-17.88,7.55-4.36,1.15-8.84,1.84-13.81,2.84,5.89,3.8,11.39,7.3,16.85,10.88,1.7,1.12,4.37,1.9,4,4.37-.39,2.74-3.41,2.64-5.45,3.27-7.91,2.46-16.07,2.76-24.28,2.45-1.76-.07-3.53,0-5.75,0,1.65,4,4.78,5.74,7.8,7.57,2.33,1.41,4.78,2.61,7.11,4,1.64,1,3.9,1.93,3,4.4-.72,2-3,1.75-4.69,1.89-8.33.69-16.65.76-24.85-1.18a7,7,0,0,0-3.87-.16c2.71,4.9,7.09,7.58,11.47,10.12,15.41,9,23.75,11.41,52.67,16.83,24.68,4.63,49.58,7.84,74.37,11.73,1.58.25,3.7-.12,3.88,2.19s-1.91,2.42-3.46,2.86a170,170,0,0,1-41,5.88,1.24,1.24,0,0,0,.63,1.7c2.36,1.36,4.32,3.14,3.83,6.06s-3,4.33-5.71,5.22c-4.31,1.4-8.71.71-13.08.76a5.69,5.69,0,0,0-4.53,2c-5.93,6-13.95,7.57-21.88,8.85-2.68.43-4.56,1-6.24,3.43-2.56,3.75-6.77,4.22-11,3.57a29.33,29.33,0,0,1-14.93-7.18c-2.26-2-4.43-4-7-6.43-.92,1.76-.08,4.32-2.43,4.58-2.56.28-2.54-2.2-3.43-3.6-6.52-10.24-15.62-16.22-27.87-17-4.34-.27-6.93,2.68-8.89,5.88-1.81,2.95-1.24,6.1,1,8.85.72.88,2,1.63,1.17,3.1s-2,1-3.18.84c-4-.58-5,.53-3.48,4.25a22.14,22.14,0,0,0,1.51,2.79c.65,1.15,1.88,2.29.32,3.55-1.28,1-2.6.53-3.73-.36-1.62-1.26-3.41-2.55-5.29-1.06s-.42,3.39.15,5c.42,1.19.95,2.25-.14,3.32s-2.4.73-3.76.24a9.12,9.12,0,0,1-3.29-2.34c-1.45-1.45-2.44-1.75-2.85.83-1.16,7.35-1.2,7.34-7.86,3.82a36.93,36.93,0,0,0-9.34-3.35c-4.43-1-6.36,1.09-7.13,5.07s1.15,6.1,5.26,5.09c7.88-1.94,15.87-2.16,23.9-1.89,1.18,0,3.32-.77,3.3,1.09a3.26,3.26,0,0,1-3.38,3.5q-4.55-.09-9.09,0a11,11,0,0,0-5.33,1.19c2.45.78,4.89,1.61,7.36,2.33,1.48.44,3.11.65,2.64,2.82-.53,2.4-2.44,2.06-4,1.69-3.25-.78-6.5-1.51-9.85-1.17-6.5.66-9.49,3.72-9.84,10.23-.26,4.69-.15,9.4-.48,14.08-.13,1.92.45,4.63-2.47,5.16-2.57.46-3.26-1.64-3.94-3.54-.16-.43-.31-1-.64-1.19-5-3.08-5.61-8.22-6.4-13.31-.1-.66.09-1.66-1-1.74-.84-.06-1.33.58-1.73,1.24-1.18,1.92-2.4,3.83-3.52,5.78-1.62,2.83-4.49,5-7.2,4.23s-2.93-4.41-2.83-7.36c.12-3.49,2.15-6.51,2.58-10.39-4.72,2.45-9.36,4.15-13.19,7.31-.9.74-1.7,1.43-2.76.65a2.43,2.43,0,0,1-.54-2.94c1-2.51,1.92-5.22,3.57-7.3,1.8-2.27,2-4.6,2-7.18,0-1.38,0-2.84-1.59-3.41A3.63,3.63,0,0,0,111,404c-2.91,2.44-7.14,2.53-9.84,5.44a1.35,1.35,0,0,1-2,0,3.08,3.08,0,0,1-.39-3.78c2-4.19,5.36-7.26,8.56-10.47,5.94-5.95,13.4-8.3,21.46-9.23a2.14,2.14,0,0,0,1.89-1.59,14.05,14.05,0,0,1,5.62-6.41c4.78-2.79,2-6.34,1.3-9.49-.77-3.45-2.37-6.6-6.65-7-8.94-.87-12.41-4.32-13.14-13.64-.15-1.81-.4-2.73-2.06-3.25-7.16-2.26-13.57-6.21-21-8.2-4.82-1.28-9-4.13-14.45-2.88-1.62.37-3.39-1.46-4.54-3.29-3.51-5.64-7.26-11.12-10.85-16.7-1-1.49-1.47-2.75-3.76-1.36-6,3.6-10.61,1.47-11.81-5.37-.41-2.37-.37-4.15-3.6-2.67-1.74.79-3.17-.61-4.22-2-1.63-2.08-2.94-4.54-2.47-7.13,1.61-8.82-.13-18,3-26.64a30.27,30.27,0,0,0,1.37-5.73c1.17-7.7-3.43-13.12-11.17-12.92a164.31,164.31,0,0,0-19,1.21c-3.35.47-3,3.86-2.72,6.58.16,1.94,2.86,4.31.24,5.67s-4.8-1-6.46-2.93A63.94,63.94,0,0,1,0,254v-.91a9.3,9.3,0,0,0,0-6.37v-.91C1.08,233.53,7.85,224,15.27,215,25,203.23,38.1,199.69,52.83,201.4c6.21.72,6.13.81,5.48-5.3-.93-8.88-1.8-17.77-3.05-26.62C54.09,161.23,57.15,154.35,62,148c10.53-13.69,20.87-27.52,30.3-42,14.06-21.62,24.31-45,32-69.57.54-1.73,1-3.51,1.62-5.2.76-1.9,1.68-3.81,4.14-3.45,2.27.32,3.21,2.2,3.57,4.21a44.78,44.78,0,0,1,.26,11.79c-1,11.6-1.28,23.28-3.54,34.76A14.56,14.56,0,0,1,129.08,83c12.92-14.32,25.75-27.95,38-42.08,5.73-6.6,10.21-13.9,12.06-22.61.47-2.24,1.12-4.83,4.21-4.3,3.45.6,3.53,3.48,3,6.09-2.18,10.8-4.8,21.5-8.14,32.38C192,39.21,204.94,25.7,216.69,11.05a35.23,35.23,0,0,0,5-8.09c.56-1.29.83-3.06,2.91-2.94,3.55-.25,4.16,1.5,3.21,4.53-3.09,9.8-6,19.66-9.92,29.18A15.78,15.78,0,0,0,216.78,38c5-4,8-9.3,10.43-15,.75-1.76,1-4.22,3.69-3.74,2.9.52,1.8,3.09,1.87,4.86.24,6.67-.59,13.28-1.9,21.19,3.59-3.18,5.46-6.26,7.51-9.2,1-1.39,1.59-3.68,4-2.79,2.17.81,1.79,2.92,1.82,4.71a90.87,90.87,0,0,1-1.9,22.06c2-.19,2.5-1.85,3.37-3q18.79-23.94,36.4-48.79c1.09-1.53,1.87-3.92,4.26-3.52,2.65.44,2.48,3.11,3,5.07,4.15,15.82.33,30.57-6.28,44.88-2.08,4.51-4.49,8.88-6.76,13.32,0,.55-.64,1.17,0,1.61C276.5,69.87,277.11,69.54,277.52,69.35Z"/><path class="cls-1" d="M0,246.68a5.21,5.21,0,0,1,0,6.37Z"/><path class="cls-2" d="M47.52,264.82c-.05-2.11-.05-4.22-.13-6.33C47.12,251.94,44,248,37.33,245.72c-.48-1.19-2.95.74-2.64-1.69,2.85.34,4.77-2.09,7.54-2.49,2.19-.32,1.69-2.75.44-4.42s-2.49-2.64-4.56-2.4A12.93,12.93,0,0,0,32,233.9c-3.76.42-6.39-1.44-8.36-4.47,1.41,0,2.82,0,3.13-1.84a2.79,2.79,0,0,0-1.64-3c-.13-.08-.25-.19-.37-.27-7.35-4.49-7.52-5.23.34-10.94,12.52-9.1,26.3-8.43,40.1-2.84a46.6,46.6,0,0,1,9.22,4.85c11,7.69,21.59,6.34,32.51-.49,11.21-7,19.91-15.85,25.46-28.08,4.79-10.57,12.45-19.62,17.16-30.3,3.42-7.76,6.87-15.5,11.66-22.54,10.2-15,23-27.64,36.21-39.86,4-3.66,7.38-8,13.2-11.55-5.23,8.57-9.87,16.07-14.4,23.63-15.93,26.59-31.24,53.57-48.75,79.18a364.36,364.36,0,0,1-25.86,33.86,43.52,43.52,0,0,0-5.12,7.47c-3.37,6-2.66,11.78,1.84,17.1.63.64,1.46,1.09,1.81,2,2.45,6.39,7,10,13.87,10.84a3.39,3.39,0,0,1,3.29,3.25c.12,6,4.06,9.19,8.4,12.13,2,1.38,3.41,2.92,3,5.57-.9,5.55,1.93,9.37,6.15,12.24A68.67,68.67,0,0,1,166,299.75a37.54,37.54,0,0,0,14.39,9.94c3.93,1.47,7.81,4,8.78,8.88a3.31,3.31,0,0,0,.81,2.95c4.63,4.48,5,10.38,5.49,16.27.43,5.42.87,10.87,3.64,15.69,1,1.83.88,3-.64,4.29s-3,2.46-3.21,4.27a30.81,30.81,0,0,1-4.88,14.89c-1,1.5-.78,3.57-3.35,3.73-.78,0-2,.77-2.19,1.39-1.18,5.17-5.14,3.72-8.49,3.77-7.6-4.56-16.3-3.76-24.57-5.07-1.78-.28-3.63-.29-5.24-1.26,1.2-5.57,2.38-11.14,3.59-16.71,3-13.69-3.77-24.14-11.45-34.29-1.16-1.54-2.52-1.31-4-.72-3,2.26-3,5-1.79,8.33,1.56,4.1,4.34,7.79,4.39,12.42-10.58-5.18-22-8.41-32.38-14.06C100,331.79,93.8,332,89.18,328.23c-1.32-1.09-3-.18-4.33.39-3.19,1.39-5.16.2-6.75-2.52-1.91-3.26-4.07-6.39-5.85-9.72-.59-1.09-3-2.38-1-3.68,1.64-1.07,3.42-3.34,6-1.45a9.32,9.32,0,0,0,6.38,1.93c3.35-.29,6.14-1.62,6.53-5.13.41-3.72,2.37-4,5.45-4.05,7.61-.08,12.6-7.73,9.53-14.26-.85-1.8-1.94-3.14-4.21-2.14a5.25,5.25,0,0,0-4,2.69c-2.12,3.42-5.25,4.2-9,4a20.17,20.17,0,0,0-10.35,2.26c-5.4,2.66-11.48,1-17.28.64-1.06-.07-1.76-1.12-2.25-2.08a13.85,13.85,0,0,0-4.09-4.75c-1.18-.89-2.52-1.9-1.34-3.72,1-.83,1.66.13,2.43.39,6.68,2.27,12.77.37,16.46-5.56,1.16-1.85,1.83-2.42,4.11-1.65,4.91,1.66,9.33-.16,11.73-4.92,1.18-2.34,2.53-2.75,4.86-2.72,8.93.08,13.71-6.84,10.48-15.24-.89-2.31-.94-3.82,1.11-5.44a8.94,8.94,0,0,0,3.47-8c-.1-1.33.27-2.87-1.15-3.68-1.61-.91-2.34.89-3.51,1.37-4.13,2.2-6.62,6.12-9.72,9.38-2.19,2.3-1.77,4.95-.57,7.62.43.94,1,2.09.13,3-1,1.07-2.25.64-3.38.15a14.42,14.42,0,0,0-6.1-1.58c-.92,0-2.16-.08-2.6.55-3.16,4.45-8.32,5.26-12.68,7.63-5.87,3.18-13.63,2.42-17.26-3.38a6,6,0,0,0-.93-1.58C48.65,263.27,48.91,265,47.52,264.82Z"/><path class="cls-2" d="M110.94,106.53c-3.32,4.21-4.45,9.72-8.11,13.73-8.09,11.06-18,20.64-25.48,32.24a109.89,109.89,0,0,0-12.12,25.19c-.45,1.38-.14,3.53-2.57,3.59-1.51-10.32-3.61-20,4.09-29.86,13.6-17.32,26.69-35.11,37.79-54.25a312,312,0,0,0,21-45.13c2.62,2.13,1,4.75.83,7.21-.25,11.07-2.76,21.81-4.78,32.62-.35,1.89-1.67,4,.73,5.22,2.18,1.11,3.25-1.09,4.38-2.34q23.06-25.6,46-51.27a22,22,0,0,1,2.05-1.56,166.83,166.83,0,0,1-7.89,25.21,167.11,167.11,0,0,1-35.86,56.21c-2.73,2.81-5.28,5.79-8,8.62-1.12,1.17-2.12,2.44-4,2.73-4.08.64-4.18,2.79-1.79,5.61,3.06,1.83,5.63,1.08,8.25-1.14,17.26-14.65,31.75-31.55,42.33-51.66,2-3.75,3.85-7.56,5.7-11.38,2.3-4.77,4.49-9.59,4.62-15,7.22-7.29,14.92-14.08,21.67-21.86a229.07,229.07,0,0,1,17.59-18c-3.1,7.85-6,15.8-9.36,23.53-3.79,8.7-7.19,17.62-12.86,25.38-1,1.36-.74,2.69.75,3.4,2,1,3.64,0,4.57-1.73,2.45-4.69,5-9.34,7-14.23,2.08-5.19,4.77-9.49,9.65-12.61,3.94-2.51,6.58-6.58,10.07-11.15.23,6.8-1.54,12.22-3.69,17.55-.79,2-1.86,3.83-.65,6-2.54,4.58-6.93,7.27-10.87,10.36-12.6,9.91-25,20-36.31,31.44A178.65,178.65,0,0,0,154,125.81c-2.42,3.67-5,7.21-7.64,10.71-10.37,8.92-21,17.48-32.71,24.67-1.35.61-1.92,1.86-2.52,3.09a3.48,3.48,0,0,0,4.17,5.11c3.75-.89,6.87-3.1,10.17-4.93,1.62-.9,3.48-3,5.25-1.35s-.17,3.61-1.06,5.26c-2.15,4-4.52,7.25-9,9.66-5.62,3.05-10.58,7.48-16.07,11-1.6,1-2.91,2.44-2.18,4.52a3.74,3.74,0,0,0,4.25,2.61c3.14-.26,3.09,1.49,1.52,3.22-8.13,9-12.85,11.67-22.77,7.32-3.59-1.57-7.31-2.91-11-4.13-2.8-.92-4-2.46-4-5.61-.14-9.13,2.36-17.56,6-25.76a102,102,0,0,1,14.5-23.71c5.72-7.74,12-15,18.37-22.21a41.48,41.48,0,0,0,7.21-11.42C118.83,108.27,117.27,106.24,110.94,106.53Z"/><path class="cls-2" d="M285.59,29.23c-.89,11.92-5.93,22.39-11.55,32.61-2.91,5.28-7.29,9.93-9.35,15.48-3.74,10.09-12.57,15.11-19.54,22-7.85,7.76-15.76,15.47-22.93,23.89-2.49,2.92-1.72,4.44,2.35,5.09,4.06.31,6.75-1.86,9.17-4.81,9.06-11,20-20.19,30.46-29.79,18.18-16.66,36.65-33.06,49.68-54.45.8-1.32,1.31-3.24,3.57-2.78-.7,11.54-4.87,22.08-9.52,32.43-4.54,10.1-10.29,19.55-16,29-3.18,5.26-8.38,8.26-13,11.79-14.7,11.18-30,21.47-45.56,31.44-2.52,1.62-3.81,2.2-5.12-1.35-1.94-5.24-5.79-7.09-11.57-6.15-2.54.42-3.93,0-4.22-2.9a11.93,11.93,0,0,0-6-9.64c-1.18-1.6-.07-2.88.63-4.16s1.54-2.61,2.22-4c2.19-4.32,4.69-8,9.12-10.84,6.08-3.88,11-9.46,16.49-14.2,18.58-16,31.67-36.53,46.05-56,1.15-1.56,1.78-4.06,4.61-3.5.07,0,.14.22.14.34A1.38,1.38,0,0,1,285.59,29.23Z"/><path class="cls-3" d="M285.59,29.23c-2.22-.82-2.26,1.28-3,2.33-11.79,16-22.55,32.87-36.38,47.24a212.55,212.55,0,0,1-27.63,24.68c-6.53,4.76-8.41,11.56-12.13,17.62-6.58-1.72-9.71,0-11.93,6.47-2.41,3.28-.56,5.66,1.7,8,1.14,1.81.33,3.47-.59,5a57.16,57.16,0,0,1-6.27,9.09c-1.3.71-2.67.09-4,.21-4.1.37-6.26,2.81-6.25,7.08.62,1.31,1.95,2.17,2.27,3.66-.49,3.79-3.46,6.14-5.35,9.1-1.52,2.38-3.2,4.65-4.75,7-2.22.66-5,0-6.31,2.75-3,1.79-1.5,4.69-1.78,7.15-5.15,7.36-11.06,14.11-16.76,21l-1.16,2.77a29.2,29.2,0,0,0-2.57,1.41c-3.51,4.15-7.3,8.06-10.32,12.61-2.75,4.13-3.86,8.45-2,13.29,1,2.51,1.24,5-1.16,7-1.72-.55-3.68-1.55-4.46,1.1s1.65,2.91,3.23,3.38a37.77,37.77,0,0,1,13.66,6.9c1.18,1,3.55,2.35-.09,3.64-1.82.64-1.47,2.15-.66,3.77,1.72,3.43,4.94,4.71,8,6.32,1.94,1,4.82,1.87,1.33,4.69-1.9,1.52-.4,3.19.76,4.2a22.85,22.85,0,0,0,5.35,3.36c2.63,1.22,4.66,2.77,5.17,5.81a4,4,0,0,0,.8,2.1c5.91,5.81,10.81,13.13,20.14,13.93a5.57,5.57,0,0,1,3.78,1.92c10.13,10.17,22.59,15.42,36.8,16.29,5,.31,9.94-.1,14.33,2.86.53,3.5-1.95,4.45-4.52,5.09-4.77,1.18-9.63.84-14.46.46-2.72-.83-5.61-.9-8.35-1.68-2.07-.59-2.84.19-2.36,2.27.69,2.91,1.11,5.9,2.48,8.61.54,1.71.79,3.51,1.46,5.18.49,2.75,2.9,5.63-.53,8.12-7.39.26-10.45-3.52-11-13-.42-6.7-.74-13.5-4.48-19.46-1.53-2.43-3.21-4.61-6.34-1.94-3.37-4.12-7-7.79-12.45-9.22a12.72,12.72,0,0,1-5.47-3.05q-10.14-10-21.12-19.08a8.72,8.72,0,0,1-2.65-9.12c.69-2.75-.47-3.71-2.34-5-4.61-3.19-9.4-6.32-8.87-13.09a2.17,2.17,0,0,0-2.3-2.32c-8.87-.5-13.43-5.86-15.71-13.83,2.55-.61,4.35-1.42,2.31-4.55-2.49-3.83-2.13-7.72.47-11.44,6-8.54,13.2-16.07,19.37-24.47,14.88-20.23,28-41.59,40.91-63.07,7.4-12.3,14.74-24.63,22.13-36.93.46-.75,1-1.71,1.71-2,16.74-6.92,27.45-20.73,38.47-34,14.15-17.09,27.28-35,40.1-53.09.23-.33.69-.5,1.53-1.07C285.42,18.79,287.84,23.9,285.59,29.23Z"/><path class="cls-2" d="M224.59,196.71a1.43,1.43,0,0,1-.34-.3c-3.47-6-3.44-10.49,2.71-15.87,7.63-6.65,6.51-14.37-.84-21.35-.52-.5-1.55-1-1-1.73,2.92-3.55,2.35-9.89,8.56-10.8,3.64,3.91,7.24,3.33,11.6.74a322.93,322.93,0,0,0,39.88-28.57c15.68-12.89,31.59-25.53,45.54-40.37,1.66-1.77,3.43-3.43,4.93-5.35.9-1.13,1.7-2.64,3.63-2-3,9.6-8.17,18.19-13.22,26.76-5.53,9.37-11.73,18.35-17.59,27.52a9.43,9.43,0,0,1-3.37,3.6c-19.64,10.12-37.51,23.36-57.67,32.54-3,1.37-6.06,2.66-9,4.13-.56.28-.78,1.25-1.16,1.9-.38,2-1.81,4.19.12,6,2.14,2,4.55.73,6.8-.12a336.06,336.06,0,0,0,64-32.65c1.41-.91,2.68-2.71,4.79-1.39a175.84,175.84,0,0,1-38.88,30.28,196,196,0,0,1-44.56,18.92c-2.27.67-4.48,1.38-4,4.49a6.82,6.82,0,0,1-.23,2.84A2,2,0,0,1,224.59,196.71Z"/><path class="cls-2" d="M224.59,196.71l0-1a1.45,1.45,0,0,1,1.65.39c2.46,2.94,5.1,2.18,8.08.74,9.23-4.48,18.56-8.74,28.11-12.49,10-3.92,20-7.73,30.28-10.72,1.82-.53,4.34-2.14,5.6,1.14-20.42,18.38-42.63,33.54-70.17,39.17-2,.4-4.42.55-4.41,3.55,2.26,6.78,4.43,8,11.42,6.17,7.46-2,14.47-5.25,21.42-8.49a252,252,0,0,0,26-13.63c2.74-1.69,4.74-4.17,7.46-5.8,3.75-.31,7.5-.64,11.25-.9.71,0,1.64-.13,1.89.82s-.56,1.36-1.22,1.62c-7.62,2.88-13.73,8.14-20.08,13C269,220.12,254.09,225,238.52,228.44c-4.26.93-8.52,1.93-12.81,2.65-2.33.39-3.13,1.51-2.8,3.7,1.11,5.85,1.49,6.29,7.31,6.11,9.68-.3,18.7-3.49,27.62-6.86a160.31,160.31,0,0,0,18.68-8.17h18.1a187.4,187.4,0,0,1-79,20.21c.35.59.2.23,0-.05-4.28-5.11-3-9.21,1.06-14.19,3.68-4.53,3.38-10.46.54-15.87a6.39,6.39,0,0,1,2.93-3.77C222.6,207.34,225.47,202.57,224.59,196.71Z"/><path class="cls-4" d="M195.5,135.71c-4.6-3.62-4.75-4.84-1-8.14,0,1.62.25,3.16,2.27,3.29a2.11,2.11,0,0,0,2.41-2.15c.12-1.69.66-3,2.58-3.11a4.86,4.86,0,0,1,4.66,2.27,10.43,10.43,0,0,1,1.29,8.25c-.76,3.67.68,4.77,4.21,3.56.57-.19,1.1-.51,1.68-.68,3.11-.94,6.39-1.73,8.95.87,2.87,2.91,2.75,6.54,1.24,10.15a28.09,28.09,0,0,1-5.09,7.47c-2.26,2.6-1.95,4.13,1.78,4.75,5.33.89,7.9,5.93,5.9,10.94-1.47,3.7-4.37,6.06-7.42,8.36-4.92,3.71-5.22,5.54-2,10.6,5.1,8.07,3.28,14.78-5.15,19-4.18,2.11-4.31,3-.6,5.68,3.33,2.38,4.08,5.33,2.63,9.12-1.74,4.52-4.84,8-8.25,11.24-2.59,2.47-2.58,4.09,1,5.55,4.76,1.93,6,6.61,3.25,11.17-2.14,3.58-5.71,5.31-9.23,7.06-2.9,1.44-3.44,3-1,5.5,4.43,4.44,4,9.14-1,13a20.16,20.16,0,0,1-8.33,3.4c-3.41.74-3.52,2.5-1.51,4.76,2.19,2.47,4.62,5,2,8.29a8.1,8.1,0,0,1-9.78,2.69c-3.23-1.24-7.46-1.39-7.42-6.46,0-.37-.4-1.05-.69-1.09-7.87-1-7.29-11.34-14.45-13.19-1.12-.29-1.22-1.66-1.14-2.75.35-4.75-2.15-7.66-6.13-9.66-1.69-.84-3.38-1.7-1.1-3.74a.93.93,0,0,0,.11-.87c-2.79-4.62-.71-10.21-2.83-14.81-1.37-3-2-5,1-7.18.89-.66,1.25-2,1.85-3.08,1.28-.14,1.41.81,1.61,1.69-3.27,5.08.11,9.45,1.53,14,.58,1.87,1.19,3.74,1.92,5.57.33.77.68,1.54,1,2.29,2.64,7.84,7.78,13.8,14.21,18.77,1.12,1.59,2.36,3.08,3.53,4.63a18,18,0,0,0,3.12,3.29c3.91,3.24,6.12,2.65,7.77-2.14,1.23-3.59,3.79-6.13,6.35-8.73,4.45-4.54,4.68-5.54,1.83-11.06-1.62-3.13-1.38-5.77,1.14-8.23a20.59,20.59,0,0,1,2.62-2.5c4.69-3.25,6.78-7.05,3.75-12.74-1.55-2.89-.62-5.77,1.66-8.33,4.62-5.18,4.57-5.56,1-11.8-2.2-3.81-1.89-6.58,1.87-8.95,8.31-5.24,9.39-12.43,5.34-20.77-2.39-4.94-1.87-9.36,2.08-13.28a26.28,26.28,0,0,0,2.77-3c2.58-3.51,2.11-5.86-1.62-8.15-5.21-3.21-5.65-6.3-1.68-11,1.2-1.44,3.9-2.82,2.77-4.71-1.36-2.27-4.11-.83-6.24-.31-6.66,1.65-10.47-1.62-8.55-8C201.35,137.67,198.49,136.89,195.5,135.71Z"/><path class="cls-2" d="M217.32,329.48c5.05-.34,10.1.47,15.16-.58a5.93,5.93,0,0,0,4.87-3.93c16.16,4.75,32.4,9.11,49,12.28,1.86.35,4-.18,5.63,1.25-1.35,2.24-3.57,3.63-5.27,5.51s-4,1.83-6.24,1.33c-10.93-2-10.76-.75-9.11,7.76.16.87.76,1.64.55,2.59l-3.6.13c-6.34.44-12.45,2.44-19.11.64-6.42-1.73-11.48,2.14-15.67,6.85A46,46,0,0,0,211.07,353c2.2-2.75-.68-5.5,0-8.25,3.26-1.76,6.13.33,9.12,1,4.34.95,5.68-.36,4.47-4.66-1.3-4.66-5.23-7.27-8.3-10.55C216.23,329.78,216.31,329.2,217.32,329.48Z"/><path class="cls-5" d="M76.39,171.18c-1.54,6.41-4.55,12.44-5,19.14,0,.74-.32,1.47-.39,2.21-.63,7.18-.62,7.16,6.17,9.66,3.26,1.2,6.51,2.42,9.7,3.77,5.24,2.23,10,2.56,14.67-1.71,2.43-2.24,4.79-4.5,8.23-7.74-4.53,1.59-7.33.84-8.52-2.45s1.25-5.21,3.83-6.79c5.27-3.23,9.81-8.18,15.13-10.46,6.2-2.66,7-8.06,10.32-12.17.2-.25,0-.79,0-1.6-5.27,2.49-9.59,6.19-15,7.66-3.89,1.05-7-1.36-6.33-5.12a5,5,0,0,1,4.5-4.39c-.76,1.37-1.49,2.86.17,4s3.18-.18,4.48-1.08c11.24-7.78,22.08-16.09,32.59-24.83.86-.22,1.28,0,1,1-1.64,3.56-3.54,7-4.88,10.71C142.62,163,134,171.34,123.74,178.5c-5.69,4-11.46,7.81-17.47,11.29-1.42.82-3.33,1.55-2.18,3.71s2.8,1,4.32.34c7.19-3.31,13.36-8.19,19.78-12.7.86-.22,1.28,0,1,1a58.9,58.9,0,0,0-2.64,5.27c-5.28,13.76-16.66,20.95-29.07,26.94-5.33,2.57-10.65,1.95-16.1-.51-8.36-3.79-13-8.93-11.62-19.05C70.84,186.44,72,178.43,76.39,171.18Z"/><path class="cls-3" d="M339.3,71.06c-5.05,5.18-9.89,10.57-15.18,15.5-23.75,22.12-48.48,43-76,60.44-1.53,1-3.24,1.66-4.82,2.55-5,2.85-6.71,2.35-9.61-2.89q26.07-17.55,51.81-35.61c7.29-5.14,13.23-11.56,20-17.11a128.21,128.21,0,0,0,18.71-19C328,70.18,332.1,65.74,335.88,61s7.12-9.28,11-13.78C345.48,55.56,343.44,63.64,339.3,71.06Z"/><path class="cls-3" d="M146.39,136.52c3.71-8.16,9.19-15.16,14.58-22.21,15.36-20.11,35.17-35.46,54.78-51,2.44-1.93,4.8-4,7.19-6,2.19.48,3.71-.55,5.2-2,3.55-3.49,7.2-6.86,10.59-10.06,1.77,10-2.79,25-10.17,32.37-4.6,4.59-9,9.36-14.25,13.27-.83.63-1.73,1.64-2.74.65s.25-1.6.69-2.29q6.36-9.91,12.76-19.79c.49-.77,1.06-1.48,1.51-2.27.68-1.19,1.46-2.62.24-3.73-1.4-1.26-2.77-.36-4,.73-5.49,5-11.16,9.71-16.46,14.85-14,13.56-28.23,26.8-41.34,41.29A101.39,101.39,0,0,1,146.39,136.52Z"/><path class="cls-2" d="M251.9,273.13c5.71,2.39,10.75,5.87,16.07,9.56a21.53,21.53,0,0,1-8.75,2.11,120.94,120.94,0,0,1-36.48-2.88c-3.35-.8-6.7-1.93-8.94-5-1.37-1.85-3-1.69-4.65-.23-.8.84-1.05,2.52-2.83,1.82,1-4.27,2.06-8.54-.68-12.6-.75-1.12-.42-1.83.69-2.52,5-3.1,9-6.89,10-13.15.38-2.42,1.21.2,1.87.14,1.69,5.53,3.11,6.84,8.92,6.81,13.85-.06,27.26-2.16,39.36-9.53,5.11,1.18,10.22,2.39,15.34,3.54,1.05.23,2.26.37,2.54,1.52.36,1.48-1,2.1-2,2.66a66.33,66.33,0,0,1-23.44,7.66c-13.67,1.86-27.39.67-41.09.9-1.91,0-4-.48-5.18,1.79-.71,5.17,0,6.26,4.95,7,9.14,1.37,18.41,1.35,27.56,2.62C247.81,275.75,249.77,274.23,251.9,273.13Z"/><path class="cls-5" d="M317.45,36.48C313,42.67,308.72,49,304,55c-9,11.42-19.57,21.25-30.11,31.18-13.25,12.5-27.6,23.88-39.34,38-2.42,2.9-4.81,7.3-10,4.13a345.73,345.73,0,0,1,41.22-40.76,185.14,185.14,0,0,0,43.33-53.61,164.53,164.53,0,0,1,8.5-14.31C318,25.34,319.15,30.91,317.45,36.48Z"/><path class="cls-5" d="M312.94,139.31l-19.27,11.53a323,323,0,0,1-50.87,24.32c-2.35.9-5.23,1.67-6.94-1-1.49-2.36-1.37-4.91,1.41-6.62,1.42,2.51,3.32,1.88,5.46,1,14.91-6.08,28.59-14.42,42.27-22.76a302.37,302.37,0,0,1,29.76-16.44c1.31-.61,3-1.9,4.05-.8,1.19,1.28.22,3.22-.69,4.62C316.65,135.38,315.46,137.92,312.94,139.31Z"/><path class="cls-4" d="M47.52,264.82c1.37-1.37.12-3.53,1.3-5,1.79.61,1.73,2.13,2.22,3.32,2.39,5.84,11.42,7.83,15.88,3.52.44-.42,1-1.18,1.37-1.13,5.08.67,7.73-2.5,10.84-5.83,2.29-2.45,6-1.2,9.05-.14,1.24.42,2,1.93,4,1.41-.91-3.51-4.34-7.48-.49-10.63,3.68-3,4.81-9.2,11-9.09.52,4.53-1.14,7.62-5.72,8.93-2.82.8-3.23,2.35-1.25,4.61a17.94,17.94,0,0,1,2.51,3.73c1.66,3.31,1.08,6.41-2,8.36-2.87,1.81-5.77,1.16-8.09-1.52-.92-1.06-1.6-2.9-3.57-1.75s-1.46,2.7-.88,4.37c1,2.83.14,5.25-2.5,6.5a5.69,5.69,0,0,1-7.36-1.54c-.9-1.07-1.53-3-3.45-2.31s-1.7,2.32-1.72,4.13c0,3.49-1.56,6.48-5,7.94A7.93,7.93,0,0,1,54.46,281c-2.29-2.15-4.41-3.05-5.43,1.14-.19.78-.65,1.54-1.55,1.15-1.35-.57-2.94-1.07-3-3a17.8,17.8,0,0,1,.66-6.27C46,271,46.73,267.89,47.52,264.82Z"/><path class="cls-2" d="M154.35,257.64c-2-4.34-2.66-9.2-5.25-13.27-2-3.08,1.87-4.36,1.87-6.79.59-2.45-.06-4.82-.47-7.2a4,4,0,0,1,.25-4.65,14.4,14.4,0,0,0,2.92-11c-.36-1.65-.72-3.29-2.22-4.36-1.51-1.22-2.6-3.25-5-2.74.08-3.85,3.5-5.51,5.48-8,3.47-4.42,6.4-9.33,10.87-12.92,2.7.48,1.92,2.59,1.8,4.19-.17,2.15-1.35,4-2.48,5.77-1.48,2.31-1.66,4.48.38,6.55,1.47,2.12,4.21,2,6.07,3.41,1.28,3-.59,4.87-2.35,6.77a22.93,22.93,0,0,1-3.69,2.64c-3.94,2.88-3.7,5.73.64,7.73.55.26,1.15.41,1.7.66a4.43,4.43,0,0,1,3,3.71c.15,1.84-1.18,2.69-2.64,3.27-2.79,1.11-3.91,3.18-3.71,6.08-2.18,3.69,2.26,4.46,3,6.85.31,3.24-1.75,4.63-4.38,5.43-2.8.85-4.37,2.56-4.37,5.56A2.86,2.86,0,0,1,154.35,257.64Z"/><path class="cls-2" d="M237.34,294.88a51.53,51.53,0,0,0,11,7.93c-5.55,2-10.46.41-15.18-.22-9.22-1.23-17.49-5.24-25.43-10-2.51-1.53-5.25-4.89-8.71-1.26-.86,1.59-.06,2.83.71,4.18C204,302.94,210.12,308,218.54,310a14.65,14.65,0,0,1,3.42,1.15l6.95,6.32c-10.77.73-20-2.19-28.81-6.87a32.45,32.45,0,0,1-4.16-2.74c-1.82-1.34-4.39-2.43-5.13-4.25-.92-2.26,2.49-2.74,3.66-4.38,2.25-3.16,2.71-6.37,1-9.78-1-2-.56-3,1.5-3.71a16.36,16.36,0,0,0,7.71-5.34,36.5,36.5,0,0,0,15.58,11.45C225.77,294,231.17,296.66,237.34,294.88Z"/><path class="cls-4" d="M52.74,286.64c-.06,3.37,4.12,2.8,4.95,5.31,2.39,7.24,8.87,4.6,13.28,4.55,7-.09,13.41-4.9,20.92-3.51,2,.37,3-1.61,3.91-3.24,1.13-2.08,2.4-4,5.19-2.15a3.4,3.4,0,0,0-.54,3.35c1.81,5.14-.63,8.41-6,8.53-2.52,0-4.69-.93-7-1.76-1.14-.42-2.5-.59-3.37.51s-.46,2.21.24,3.34c1.29,2.08,2.84,4.6.13,6.37s-4.78-.48-6.58-2.36c-.83-.87-1.37-2.14-2.34-2.73-1.88-1.16-3.75-1.5-4.22,1.61-.54,3.54-2.46,4.38-5.28,2.33a15.72,15.72,0,0,1-1.93-1.9c-2.25-2.34-4-2-4.81,1.13-.45,1.72-.7,3.51-2.91,3.17-1.87-.28-2.68-1.88-2.74-3.69-.08-2.41,0-4.83,0-7.25,0-1.67.15-3.53-1.92-4.11-1.89-.52-2.59,1.08-3.4,2.35s-1.35,2.78-2.9,2.41-1.52-2.07-1.75-3.38c-.91-5-.14-6,5-7.07A22.56,22.56,0,0,0,52.74,286.64Z"/><path class="cls-5" d="M178.2,61.08c1.82,2.66.72,5.27-.28,7.78a181.81,181.81,0,0,1-48,68.27c-1.45,1.31-3.08,2.42-4.56,3.71-2.88,2.52-5.57,2.83-8-.54a9,9,0,0,0,6.91-2.8c21-19.76,37.4-42.67,47.46-69.87C172.89,64.32,176.15,63.38,178.2,61.08Z"/><path class="cls-5" d="M290.11,195.79c-2.16,5.54-7.59,7.14-12.07,9.66-14.19,8-28.71,15.37-44.46,19.84-6.74,1.91-10.7-1.44-9.82-7.75a5.1,5.1,0,0,0,4.44,1.22c16.17-2.86,30.79-9.6,44.48-18.26C278.23,197,283.73,195.24,290.11,195.79Z"/><path class="cls-5" d="M298.34,174.82c-3.07-2-5.85.05-8.51.92a430.23,430.23,0,0,0-55,22.14c-5.7,2.78-6.35,2.67-10.24-2.12,0-1-.17-2.1.92-2.76,2.4,1.77,4.74.24,6.9-.39A215.82,215.82,0,0,0,282,170.71c5.48-3.26,12.28-2.67,18.57-3,1.95-.11,2.41,1.47,1.46,3.23A9.73,9.73,0,0,1,298.34,174.82Z"/><path class="cls-6" d="M122.77,411.33c2.9-2.92,6.78-3.84,10.45-5.21,5.23-1.94,9.28-5,10.6-10.83.49-2.12,1.92-4,3.94-3.63,1.68.28,2.83,2.42,2.16,4.43-2.3,7,.79,11,7.73,13.33-6.69,4.54-8.06,10.79-7.7,17.76.05.93.64,2.37-.76,2.75-1.62.44-2-1.08-2.36-2.17a27.13,27.13,0,0,1-1.31-8.49,4.09,4.09,0,0,0-7.31-2.86c-2.55,3-5,6-8.14,9.75.15-5.61,2.88-8.7,6.26-11.44,1.24-1,3.34-1.53,2.61-3.7-.81-2.36-3-1.57-4.7-1.52-3.7.12-7,1.94-10.47,2.84C122.78,412.66,122.54,412.23,122.77,411.33Z"/><path class="cls-5" d="M266.48,247.69c-.27,1.84-1.43,2.82-3.09,3.53a88.37,88.37,0,0,1-37.77,7.24c-6.26-.19-8.88-3.17-7.42-8.06,6.32,1,12.49-.52,18.65-1.39,6.51-.92,12.9-2.64,19.36-3.91C260,244.35,263,246.89,266.48,247.69Z"/><path class="cls-5" d="M276.52,225.87a3.15,3.15,0,0,1-2.18,2.6c-12.71,5.46-25.36,11.14-39.18,13.27a43.91,43.91,0,0,1-9.45.31c-3.35-.22-4.33-3.07-2.8-7.26,4.72,2.43,9.14-.36,13.52-1.16a128.29,128.29,0,0,0,28.87-8.58C269.18,223.34,272.68,226.86,276.52,225.87Z"/><path class="cls-4" d="M233.49,363.31c2.28-6,8.9-9.68,16.61-8.16,4.34.85,8.29,1.65,12.61,0a5.34,5.34,0,0,1,5.56.68c-1.73,2.43-.9,3.84,1.81,4.45A46.15,46.15,0,0,1,281,364c-2.53,3-6,3.41-9.49,2.84a18.11,18.11,0,0,0-10.61.93l-7.32-7.16c-1.26-1.23-2.61-3.09-4.48-1.51-2.16,1.83-.39,3.4,1,4.83a10.6,10.6,0,0,1,.78,1.08c-2.42,1.77-5.38,1.11-8,1.73-1.69-1.73-3-4.2-6-1.44C235.31,366.59,234.51,364.17,233.49,363.31Z"/><path class="cls-6" d="M23.61,229.43c3.5,1.81,6.62,4.75,11.22,3.07a2.61,2.61,0,0,1,3.28,2.22c-1.11,4.48-4.44,5.47-8.45,5.43-2.26,0-4.53-.05-6.79,0Q10,240.58,5.94,253.22c-1.48-1.71-.89-3.59-.66-5.51.81-6.88,3.48-13.07,6.93-19,2-3.41,4.45-5.36,8.06-1.63A19.81,19.81,0,0,0,23.61,229.43Z"/><path class="cls-5" d="M62.66,181.28c4.1-12.15,9.23-23.77,17-34.11,7.13-9.49,14.53-18.72,23.15-26.91-3.55,8.08-9.27,14.75-14.27,21.87-10.18,14.5-19.73,29.27-23.5,47a5.25,5.25,0,0,0,.39,3.84,1.11,1.11,0,0,1-1.75,0Q63.18,187.13,62.66,181.28Z"/><path class="cls-7" d="M303.79,340.52l46.28,6.94a128.1,128.1,0,0,1-46.35,2.8C301.26,347,302.28,343.76,303.79,340.52Z"/><path class="cls-2" d="M129.19,244.7a9.82,9.82,0,0,0-.28-7.85c-1.68-3.5-.88-7.24.93-10.47a67.34,67.34,0,0,1,13-16c4,7.42,3.81,8.48-1.85,14-2.38,2.3-3.4,4.35-.25,7.13,3,2.61,2.19,4.12-3,7.12-1.34,1.75-1.49,3.49,0,5.22,1.27,1.4,3.87,2.21,2.13,4.91Z"/><path class="cls-8" d="M260.9,367.75c1.44-3.09,4.2-3.51,6.9-2.7,4.63,1.38,8.9.48,13.2-1.07a99.24,99.24,0,0,0,17.76,4.93C289.09,378.73,270.76,378,260.9,367.75Z"/><path class="cls-7" d="M301.89,354.89c7.3-1.37,12.19,4.22,18.27,6.38a2.42,2.42,0,0,1,1.46,1.55c.08,1.12-1.12,1.27-1.93,1.53-4.13,1.34-8.38.91-12.56.54-7.65-.67-15.28-1.58-22.42-4.72-1-1.85.53-2.4,1.65-2.88C291.32,355.2,296.41,353.74,301.89,354.89Z"/><path class="cls-3" d="M251.9,273.13c-1,4.89-5,3.68-8,3.45-9.25-.69-18.47-1.73-27.7-2.59-2-.19-4.15-.55-4.89-2.59s-.92-4.2,1.35-5.64c.31,2.32,1.85,2.84,3.89,2.78,8.13-.23,16.2,1.5,24.32.79A13.62,13.62,0,0,1,251.9,273.13Z"/><path class="cls-4" d="M146.58,379.49c8.9.6,17.9.36,26.48,3.4a6,6,0,0,1,3.33,2.93c-1.72,6.78-5.56,6.75-10.95,3.9a12.89,12.89,0,0,0-8.86-1.15c-4,1.05-6.33-2.19-9.44-3.25C145.08,384.62,146.64,381.52,146.58,379.49Z"/><path class="cls-5" d="M237.34,294.88c-1.9,3.07-5,2.15-7.36,1.54a66,66,0,0,1-20.57-9.17c-2.5-1.68-3.69-4.17-4.7-6.82a2.67,2.67,0,0,1,1.61-1.89l2.83-1.82c.48,4.86,4.37,6.53,8,8.18a25.67,25.67,0,0,0,10.38,2.67C232.78,287.58,235.44,290.62,237.34,294.88Z"/><path class="cls-9" d="M301.89,354.89c-6.24.08-12.06,1.53-17.18,5.28-4.24-1.61-8.35-3.59-12.84-4.48-.76-.44-2.2-1.21-2.17-1.27,1.45-3-1.69-5.93-.24-8.84,1.58-3.19,4.2-2.75,6.93-1.73,1.2.46,2.77-.22,3.68,1.18l0,.58c-1.5.37-3.77-1.66-4.44,1.21s1.63,3.06,3.5,3.62C286.59,352.64,294.31,353.4,301.89,354.89Z"/><path class="cls-7" d="M242.8,366.72c2.13-3.16,5.31-1.44,8-1.73,6.21,5.48,11.71,11.89,19.93,14.68,2.06.69.88,1.85-.16,2.55-2.37,1.58-4.85,1-7.37.3C254.35,379.93,248.36,373.61,242.8,366.72Z"/><path class="cls-10" d="M109.92,399.57c4.29-4.68,9.84-6.75,15.41-8.59,1.88-.62,3.63-3.27,5.12-2.2a31.74,31.74,0,0,1,7.09,7.52c1.17,1.64-1,2.7-2.16,3.26-4.61,2.16-9.32,4.09-14.34,6.25-.28-2.92,1.34-4.51,2.81-6.18a2.71,2.71,0,0,0,.26-3.72c-.89-1.17-2.08-.89-3.29-.42C117.19,396.88,113.55,398.22,109.92,399.57Z"/><path class="cls-9" d="M280.09,345.61c0-.19,0-.39,0-.58a8.09,8.09,0,0,0,7.35-3.21c1.2-1.43,2.31-3.18,4.52-3.32l11.85,2c0,3.25-.05,6.49-.07,9.74C295.78,349.05,287.81,348,280.09,345.61Z"/><path class="cls-5" d="M110.94,106.53c2.09-2.47,4.46-1.54,6.39-.09s1.87,3.46,1,5.72c-2.52,6.78-6.79,12.32-11.63,17.56-5.38,5.83-10.56,11.83-15.83,17.75,3.06-6.45,8-11.63,11.85-17.58a192.35,192.35,0,0,0,10.09-17.2C114.18,110,114.34,107.73,110.94,106.53Z"/><path class="cls-3" d="M137.31,348.52c-2.09-4.85-4.33-9.64-6.21-14.57-1.24-3.24-.12-5.6,3.61-6.18-.77,2.75,1.09,4.57,2.46,6.45,4.56,6.25,8.16,12.87,8.84,21.16Z"/><path class="cls-5" d="M222,311.18c-8.7.27-19.6-6.78-23-14.85-.71-1.71-1.31-3.39.09-5.05,0,1.46.36,2.77,2,3.16,3.34.82,5.68,3.58,8.72,4.69C215.81,301.33,219,306.08,222,311.18Z"/><path class="cls-11" d="M143.42,371.72c-1.07-3.13-1.7-5.14-2.45-7.1-1.64-4.26-4.6-7.14-9.2-7.8-7.45-1.07-7.46-1-9.54-9.53,9.17,3.36,17.51,6.84,22.65,15.08C146.54,365,144.35,367.8,143.42,371.72Z"/><path class="cls-12" d="M137.31,238.48c.43-1,1.39-1.49,2.27-2.08,2.17-1.45,3-2.77,0-4.58s-3.62-5.12-.68-7c5.28-3.48,6.76-7.46,3.88-13.08-.18-.35,0-.89,0-1.34a1.5,1.5,0,0,1,2.39,0c4.35,6.26,4.08,8.73-1.74,14.2-2.59,2.42-5.67,4.33.37,6.67,3.11,1.2,1.87,4.18-.36,5.73-1.79,1.25-4.06,1.8-6.12,2.66A.64.64,0,0,1,137.31,238.48Z"/><path class="cls-13" d="M141.91,380a40.39,40.39,0,0,0-.67,6.18c.08,1.7-.06,3-1.82,3.55s-2.13-1.2-3-2.09c-1.18-1.24-1.46-2.58-.05-3.91S139.07,380.5,141.91,380Z"/><path class="cls-14" d="M154.54,214c.34,4.71.31,9.33-3.4,13-1.16,1.13-.1,2.24-.14,3.35.37.93-.07,1.08-.86.9-1.81-2.45-2.58-4.69.21-7.2,1.49-1.34,2.12-3.5,2.58-5.55C154.14,217.19,151.71,214.63,154.54,214Z"/><path class="cls-15" d="M139.9,248.68c.4-2.27-1.94-3-2.59-4.72a.71.71,0,0,1,.14-1.23c3.23,1.56,5.86,3.6,6.21,8.37Z"/><path class="cls-16" d="M63.69,193h1.75v11.8l-.69,0Q64.23,198.87,63.69,193Z"/><path class="cls-17" d="M34.69,244l2.64,1.69-11.93,0c-.26-.17-.34-.33-.26-.5s.17-.25.26-.25Z"/><path class="cls-18" d="M150.14,231.18l.86-.9a7,7,0,0,1,0,7.3,1.88,1.88,0,0,0-.81-1.76C150.15,234.27,150.15,232.73,150.14,231.18Z"/><path class="cls-19" d="M126.41,59.25c-.43-2.39.83-5-.83-7.21,0-.92.16-1.73,1.66-2.4C127.12,53.07,128,56.21,126.41,59.25Z"/><path class="cls-20" d="M154.54,214c-1.63,1.09-.11,3.33-1.61,4.46a18.53,18.53,0,0,0-1.48-8.11C153.54,210.65,153.8,212.51,154.54,214Z"/><path class="cls-21" d="M220.07,212.2c-.81,1.39-1.27,3.05-2.93,3.77C215.63,212.78,218.42,212.94,220.07,212.2Z"/><path class="cls-22" d="M25.4,244.94a2.36,2.36,0,0,1,0,.75H20.11l0-.75Z"/><path class="cls-23" d="M137.45,242.73c0,.41-.1.82-.14,1.23a4.13,4.13,0,0,1,0-5.48c0,.38.05.76.08,1.13Z"/><path class="cls-24" d="M151.89,140.25l-1-1,2.23-2.59C153.61,138.59,152.72,139.41,151.89,140.25Z"/><path class="cls-25" d="M122.77,411.33l1,1a4,4,0,0,1-3.13,1.45C120.69,412.32,121.76,411.85,122.77,411.33Z"/><path class="cls-26" d="M129.16,182.1l-1-1c.43-.77,1.25-1.93,1.83-1.42C131,180.59,129.87,181.43,129.16,182.1Z"/><path class="cls-1" d="M45.25,228.52c-3.27.4-6.39-.74-9.54-1.87-1.73-.62-2.58-1.86-2-3.5,1.38-3.62,3.39-6.92,7.42-8S49,214.61,52,218c1.91,2.13,3.52,4.47,2.25,7.34-1.17,2.64-3.81,3.21-6.52,3.22Z"/><path class="cls-2" d="M195.5,135.71c6.94-.05,7.43.5,5.27,7.27-.69,2.15-.58,3.89.87,5.43a4.45,4.45,0,0,0,5.75,1,6.85,6.85,0,0,1,1.31-.38c2.76-.76,6.26-2.06,7.91.6s-1.78,4.36-3.47,6.13c-4.38,4.61-4,7.45,1.79,9.81,3.82,1.55,3.83,4.21,2.81,7.38-.58,1.79-2,3-3.32,4.25-5.34,5.37-5.68,7.52-2.29,14.42,3.88,7.91,1.72,15.67-5.69,20.42-4.29,2.76-4.69,4.79-1.7,8.75,3.47,4.62,3.6,7.33-.47,11-3.69,3.35-4.19,6.63-1.69,10.78s0,7.15-2.73,9.94a24.49,24.49,0,0,1-3.19,2.51c-4,2.91-4.93,6-1.49,10.24,2.47,3.05,1.38,6.26-1.27,8.95-3.88,3.93-8.64,7.28-8.55,13.77,0,1.66-1.68,1.39-2.86,1.41-4.71.09-7.31-3-9.62-6.48,1.11-1.14,2.53-.66,3.86-.73,5.44-.28,9-3.91,8.24-9.17-.53-3.69-.19-6.78,2.07-9.8,1.39-1.86,1.24-4.32,1.62-6.55,1.87-2.57.17-5.51.86-8.21a6.12,6.12,0,0,1,1.72-2.06c7.67-6.71,8.71-10.71,5.28-20.31-.16-2-1.8-3.4-2.26-5.29.21-1.8,1.57-2.86,2.69-4.07,5.83-6.29,6.3-12.37,1.49-19.58A2.71,2.71,0,0,1,198,196a17,17,0,0,0,3.16-10.69c1.38-7.65-.06-14.06-7.72-17.81-1.51-.74-2.36-2.12-1.6-3.73,2.48-5.25.93-9.58-2.73-13.55-.17-.19-.07-.55,0-.85.86-3.09,3.27-5.26,4.73-8C194.78,139.6,196.72,138.1,195.5,135.71Z"/><path class="cls-2" d="M169.92,278.58a32.9,32.9,0,0,1-14.49-18.9c2.28-1.29,4.9-.67,7.33-1.38,7.23-2.13,9.53-5,9.45-12.54.63-2.64-.1-5.24-.21-7.85a4.13,4.13,0,0,1,.8-2.09c3.65-4.64,3.75-9.32.2-14.07-.53-1.44-.9-2.88,0-4.31a11.26,11.26,0,0,0,1.74-3.17c.73-1.66,1.32-3.38,2.13-5a4,4,0,0,0,.61-4.46c-.7-3.36-2.8-5.88-5-8.33a1.47,1.47,0,0,1,0-.88c3.77-6.69,3.09-13-1.47-19.08.45-4.13,3.94-6.47,5.81-9.77,1.24-2.2,2.72-4.26,4.09-6.38,2.41-.66,3.42.55,3.36,2.76a17.16,17.16,0,0,1-1.42,7c-2.17,5.15-1.85,6.5,3.21,8,6.18,1.86,7.39,6.34,7.24,11.85-.32,3.2-3.3,4-5.2,5.74-2.44,2.54-.83,4.28,1.13,6,3.87,3.34,4.08,4.83,1.43,9.17-1.35,2.21-3.28,3.92-5,5.85-2.69,3.09-2.57,4.83.38,7.71,6.14,6,5.67,10-1.68,14.47-4.56,2.77-5.37,4.71-3.77,9.11.69,1.36,1.72,2.57,1.71,4.21a9.93,9.93,0,0,1-4.71,7.3c-2.39,1.48-3.34,3.65-2.09,6.14,2,4,1.84,7.06-2.49,9.24-.62.31-.81,1.23-1.13,1.91A2.89,2.89,0,0,1,169.92,278.58Z"/><path class="cls-1" d="M169.92,278.58l1.06-1.69c1.29-1.63,2.73-.6,4.1-.18,1.68.51,3.33.7,4.56-.82s.71-3.14.11-4.73c-.49-1.27-1.25-2.4-1.75-3.67-.71-1.81-.34-3.68,1.32-4.32,4.8-1.85,4.37-5,2.69-8.7a4.72,4.72,0,0,1-.33-2.22c-.61-1.28-1.21-2.55-1.81-3.83.06-2.57,2.23-3,4-3.75,2.5-1.1,5-2.19,6.9-4.23,4.14-4.4,3.49-10.26-1.48-13.61-4.76-3.22-4.89-5.18-.41-8.84a28.65,28.65,0,0,0,6.37-6.4c3.61-5.58,1.84-10.2-4.5-12-2.31-.67-5-1.22-3.08-4.73,1.65-1.58,4.05-2.29,5.18-4.46.2-2.38,2-4,2.93-6,3.08-6.94-.8-12.87-8.29-12.55-1.56.07-3,.09-4.06-1.27a4.82,4.82,0,0,1,1.64-5.65,8.42,8.42,0,0,0,3.11-5.36,4.07,4.07,0,0,0-2-4.26c-1.55-.89-2.54.22-3.5,1.2-1.22,1.26-2.49,2.31-4.33,1.09-1.76-4.6,2.45-9.49,7.81-9a20,20,0,0,1,3,.74c5.41,4.36,6.31,7.51,3.86,14.16-.51,1.38-1,2.14.85,3.13,8.39,4.56,10.53,9.9,8,19a10.16,10.16,0,0,1-2.52,6.1c-1,1.22-1.75,2.4-1,4a14.43,14.43,0,0,1,1.24,20.12c-1.55,1.82-3.27,3.5-4.91,5.25.8,1.65,2.45,2.82,2.71,4.78,4.72,9.2,2.73,15.41-7.29,22.75-1,1.21-1.66,2.47-.81,4.08a3.93,3.93,0,0,1,.15,3.87,9.71,9.71,0,0,1-2.28,8.76,5.15,5.15,0,0,0-1.53,4.47c1.43,11-1.93,14.45-12.68,13.13C171.83,281.55,170,280.65,169.92,278.58Z"/><path class="cls-1" d="M173.72,221.06c4.56,6.45,4.36,9.91-.94,16.46-1.21,1.68-3.16,3.24-.39,5.32a2.37,2.37,0,0,1,.61,2.81c1.14,4.8-.25,8.81-4.29,11.31s-8.38,4.13-13.28,2.72l-1.08-2c.08-.91.17-1.81.25-2.72,1.45-1.52,3.36-1.15,5.14-1.22,2.87-.13,5.48-.77,6.75-3.68s-1.36-4.3-2.8-6.11c-1.8-1.73-7.33-1.82-2.76-6.33,1.41-2,3.93-2.09,5.84-3.24,2.21-1.33,3.84-3,3.82-5.71s-1.87-3.92-4-5c-6.06-3.25-6.13-5.27-.37-9s6.36-5.93,2.95-9.68c-1.27-.92-2.73-.25-4.08-.48-3.26-1.65-2.71-4-1-6.37,1.51-2.07,3.39-3.87,4.61-6.16,2.51-4.73,1.72-7.63-2.88-10.56-.76-.48-1.65-.87-1.33-2,.62-4.48,3.44-3.88,6.46-2.8,6.51,5.6,6.93,10.11,1.87,20.11,0,2,1.64,2.9,2.9,4.07s1.76,3,2.24,4.67c.14,1.36,1.06,2.82-.46,4-.13,2-1.16,3.65-2.06,5.36a13,13,0,0,1-2.49,3.08C171.69,219.22,173,220.09,173.72,221.06Z"/><path class="cls-27" d="M164.53,179.31c.84,2.3,3.56.72,4.91,2.52,2.38,3.2,2.43,6.31.76,9.69a27.31,27.31,0,0,1-5.12,6.86c-2,2-2.3,3.88.47,5.48-1,1.67-1,1.67-3.68.07-3.09-2.15-3.1-4.6-1.08-7.62s4.42-5.84,2-9.69a8.81,8.81,0,0,1-.88-5.65C162.13,179.5,162.64,178.25,164.53,179.31Z"/><path class="cls-1" d="M216.48,330.18c4.64,1.79,9.94,8.81,9.89,13.32,0,3.14-1.4,4.81-4.86,3.87s-7-1.73-10.45-2.59c-1-1.28-2.57-2.43-1-4.3a2.93,2.93,0,0,1,2.33-1.12c2-.17,3.95.79,6.69.91-2-2.84-5.21-4.17-5.25-7.51C214.09,331.25,214.64,330.06,216.48,330.18Z"/><path class="cls-28" d="M178.31,157.58c1.37,0,2.81,0,3.49-1.49,1-2.29,2.62-3.45,5-2a5.16,5.16,0,0,1,2.56,6.13,8.72,8.72,0,0,1-3.66,5.5,3.8,3.8,0,0,0-1.87,4.53,1.42,1.42,0,0,1-1.93,0,42.07,42.07,0,0,1,1.19-6.48c.79-2.34-.52-2.88-2.17-3.41A5.27,5.27,0,0,1,178.31,157.58Z"/><path class="cls-2" d="M216.48,330.18a3.52,3.52,0,0,0-1.95,3c-2.71,1.77-3.79,4-1.8,6.95l-2.63.39c-3.64-3.44-3-8.33-4.15-12.58-.26-.95.8-1.12,1.57-.93,3.27.81,6.54,1.67,9.8,2.51Z"/><path class="cls-1" d="M252.08,333.16c3.58,1.67,7.42,2.43,11.24,3.32,1.67.4,3.55.77,2.89,3.1-.51,1.84-2.17,1.95-3.73,1.45-2.68-.86-4.93-1.44-5.52,2.56-.23,1.59-2.16,1.6-3.46,1.26-5.42-1.4-10.74-3.05-15.4-6.34-1.44-1-2.13-2.21-1.47-3.84.72-1.78,2.14-1.2,3.45-.76,3.43-.05,5.64,3.07,9.32,3.48C249.53,335.59,249.76,333.61,252.08,333.16Z"/><path class="cls-29" d="M252.08,333.16c-1.91,1.76-2.49,3.67,1,6.47a33.15,33.15,0,0,1-13-5.72c1.67-2.76,6.36-3.67,10.09-1.93A20.06,20.06,0,0,1,252.08,333.16Z"/><path class="cls-27" d="M169.29,203.75c3.84,2.15,4.52,4.57,2.27,7.95-1.59,2.38-4.16,3.44-6.45,4.89-3.13,2-3.18,3.65,0,5.14s7.24,2.61,6.83,7.29c-.43,4.88-4.43,6.46-8.39,7.84-.84.3-1.73.48-2.6.72-1.87-3.81.12-5.89,3.39-7.19,1.1-.44,2.59-.33,2.66-1.86.08-1.7-1.13-2.68-2.61-3.29a4.86,4.86,0,0,0-1.29-.36,5.22,5.22,0,0,1-4.79-4.61c-.41-2.69,1.45-4.2,3.45-5.29,3.42-1.87,6.47-3.9,6.51-8.35C167.55,205.29,167,204,169.29,203.75Z"/><path class="cls-28" d="M163.69,243.91c2.54.54,4.61,1.6,4.68,4.61s-2,4.45-4.41,5.66c-3.06,1.52-6.26.24-9.36.74-.47-3.73,1.6-5.64,4.88-6.27C162.26,248.11,163.79,246.83,163.69,243.91Z"/><path class="cls-30" d="M169.29,203.75c-1.14.67-1,1.8-1,2.88-2.54.1-4.9-.25-6.38-2.7,1.22-.32,2.49,1.63,3.68-.07C166.78,203.17,168,202.52,169.29,203.75Z"/><path class="cls-31" d="M21.85,234c-1.15,2.11-3.49,2.86-5.79,3.19a2,2,0,0,1-2-2.5,4.86,4.86,0,0,1,5.2-3.51C20.88,231.21,21.85,231.93,21.85,234Z"/><path class="cls-32" d="M43.71,219.41c3.48,0,5.06,1.18,5.8,3.34.33,1-.71,1.05-1.43,1.17C44.54,224.56,45.6,221.19,43.71,219.41Z"/><path class="cls-33" d="M198.27,195.77c-1.23-.7-3.17-1.08-1.06-3s3.21-4.64,4.63-7.09C202.22,189.58,202.3,193.4,198.27,195.77Z"/><path class="cls-34" d="M189.36,256.62c-.37-1.14-.46-2.49-1.14-3.38-2.09-2.71-1-3.93,1.8-4.57C189.91,251.33,192.73,254.24,189.36,256.62Z"/><path class="cls-35" d="M197.31,225.92c-.72-1.7-3.39-2.29-2.71-4.78C196.51,222.16,197.61,223.65,197.31,225.92Z"/><path class="cls-4" d="M187.63,194.83c-.18,2.41.79,3.41,3.34,3.72,6.52.8,9.11,5.84,6.37,11.86-1.69,3.73-4.75,6.17-7.93,8.53-4.34,3.22-4.27,4.33.27,6.7,6.12,3.2,7,11,1.68,16.05a18.93,18.93,0,0,1-7.44,4.2c-1.52.48-3.36.65-4,2.53-3.31-3-1.37-5.73.78-8.15a14.67,14.67,0,0,1,4.1-2.7c5.39-2.9,6-7.55,1.56-11.49-5.17-4.56-5.21-6.23-.45-11.15a45.52,45.52,0,0,0,4-4.87c2.16-3,2.64-5.47-1.48-7.56C184.66,200.62,184.58,197.57,187.63,194.83Z"/><path class="cls-9" d="M181.87,170.25l1.93,0a5,5,0,0,0,3,.75c8.19-1.25,13.5,5.47,10.37,13.14a14.78,14.78,0,0,1-4.34,6.26c-.26-.36-.78-.75-.75-1.07.68-6.3-2.33-9.24-8.36-10.57C179.47,177.8,179.05,174.59,181.87,170.25Z"/><path class="cls-9" d="M181.68,252.25c.91,1.72,2.14,3.35,2.68,5.19.77,2.59.89,5.15-2.9,5.75-3.1.49-3.59,2.29-2,4.9a30.1,30.1,0,0,1,2,4,4.53,4.53,0,0,1-1.31,5.35,4,4,0,0,1-5.4.39c-1.18-.86-2.28-1.41-3.73-1,.08-1.76.64-3.54,2.35-4,3.71-1,2.75-3.17,1.65-5.32-2.17-4.21-1.75-7.38,3-9.47C180.34,257,180.4,254.19,181.68,252.25Z"/><path class="cls-36" d="M173,245.65c-.79-2.24-2.68-3.53-4.53-5.14,1.12-1.53,2.86-2.07,4.31-3C173.26,240.22,174.7,242.9,173,245.65Z"/><path class="cls-37" d="M177.54,205.66a8,8,0,0,0-4.58-5.73c-2.55-1.08-.84-2.19-.1-3.31,4,1.28,4.81,4.68,5.42,8.2C178.69,205.68,178.26,205.79,177.54,205.66Z"/><path class="cls-38" d="M177.54,205.66l.74-.84c1.15,1.74,1.86,3.4-.74,4.53Z"/><path class="cls-39" d="M173.72,221.06c-.95-1-4.29-1.29-1.06-3.55a.66.66,0,0,1,1.07.07C172.85,218.74,173.55,219.9,173.72,221.06Z"/><path class="cls-40" d="M173.73,217.58l-1.07-.07,2.83-2.8A2.77,2.77,0,0,1,173.73,217.58Z"/><path class="cls-41" d="M212.73,340.09c-1.39-.76-3.19-1.13-2.67-3.45s2-3.63,4.47-3.5c1,3.59,5.74,4.34,6.28,8.6C217.89,341.93,215.41,340.44,212.73,340.09Z"/></svg>